<?xml version="1.0" encoding="UTF-8"?>
<svg id="Layer_1" data-name="Layer 1" xmlns="http://www.w3.org/2000/svg" viewBox="0 0 169.11 192">
  <defs>
    <style>
      .cls-1 {
        fill: #c1c1c1;
      }

      .cls-1, .cls-2, .cls-3 {
        stroke-width: 0px;
      }

      .cls-3 {
        fill: #42c0c0;
      }
    </style>
  </defs>
  <g>
    <path class="cls-3" d="m12.9,151.77c.22.27.34.78.34,1.37s-.12,1.27-.39,1.8c-.22.41-.56.76-.95,1.07h1.17v4.61c.05,1.54.34,2.58,1.22,2.51l1.24-.95.39.59-2.85,2.41c-.88-.41-1.49-1.07-1.85-2l-2.19,2c-1.17-.54-2.39-1.93-2.39-4.19v-1.1c0-4.76,5.83-5.46,6-8.05l.27-.07Zm-2.1,5.05c-.98.71-1.93,1.54-1.93,3v1.17c.07,1.24.44,1.98,1.19,2l.88-.68c-.1-.51-.15-1.07-.15-1.68v-3.8Z"/>
    <path class="cls-3" d="m18.93,163.55l-1.9,1.63c-1.58-.73-2.19-2.29-2.19-4.56v-5.27l2.19-1.51v6.51c0,1.66.29,2.85,1.19,2.78l.71-.54v-7.24l2.19-1.51v12.34c-.34,3.97-2.39,5.12-3.44,5.34-1.44.24-2.41-.34-2.85-1.1l.24-.07c.39.32.78.41,1.17.41.49,0,.93-.17,1.15-.27.88-.44,1.39-2.19,1.54-4.32v-2.63Z"/>
    <path class="cls-3" d="m26,153.82c.9.29,1.59.88,2.02,1.73l1.93-1.73c1.9.61,2.71,2.41,2.71,5.34v8.66l-2.19-1.78v-6.71c0-1.61-.32-2.95-1.54-3.44l-.56.49c.22.78.34,1.71.34,2.78v5.85l-2.19-1.8v-3.88c0-1.61-.32-2.95-1.54-3.44l-.22.19v9.1h-2.22v-8.27l3.46-3.1Z"/>
    <path class="cls-3" d="m39.78,151.77c.22.27.34.78.34,1.37s-.12,1.27-.39,1.8c-.22.41-.56.76-.95,1.07h1.17v4.61c.05,1.54.34,2.58,1.22,2.51l1.24-.95.39.59-2.85,2.41c-.88-.41-1.49-1.07-1.85-2l-2.19,2c-1.17-.54-2.39-1.93-2.39-4.19v-1.1c0-4.76,5.83-5.46,6-8.05l.27-.07Zm-2.1,5.05c-.98.71-1.93,1.54-1.93,3v1.17c.07,1.24.44,1.98,1.19,2l.88-.68c-.1-.51-.15-1.07-.15-1.68v-3.8Z"/>
    <path class="cls-3" d="m55.48,160.33c.39.76.56,1.54.56,2.29,0,2.39-1.8,4.49-4.58,4.58-2.34.07-5.71-2.1-5.71-6.51v-2.29c0-1.32-.54-2.27-1.49-2.66l-.34.32v9.12h-2.22v-10.14h2.22l1.24-1.22c1.51.41,2.76,1.49,2.83,5.1v3.56c0,2.49,2.71,2.78,3.68,2.71,2.17-.07,3.61-1.54,3.61-3.49,0-.41-.07-.83-.19-1.27l.39-.1Z"/>
  </g>
  <path class="cls-1" d="m57.84,181.6l-1.5-1.5v-44.45h-1.58v44.45l-1.5,1.5c-.2.2-.2.52,0,.72l1.92,1.92c.2.2.52.2.72,0l1.92-1.92c.2-.2.2-.52,0-.72Z"/>
  <path class="cls-2" d="m74.07,135.63s-.05.02-.08.02c.03,0,.05-.02.08-.02Z"/>
  <g>
    <path class="cls-3" d="m99.83,65.62c0,1.29.39,2.37,1.17,3.19.82.87,1.95,1.32,3.35,1.32.96,0,1.81-.19,2.53-.56.62-.32,1.15-.78,1.55-1.36.1-.14.15-.34.15-.63,0-.24-.04-.47-.13-.68-.11-.27-.27-.43-.49-.5l-2.47-.78c-.24-.07-.34-.13-.38-.17-.08-.05-.09-.1-.09-.16,0-.19.12-.56.67-1.18.41-.46.84-.84,1.28-1.12.25-.16.56-.28.93-.36.21-.05.5-.1.86-.18l.14-.03,1.51-2.79-1.51.95c-.19.11-.36.2-.48.26l-1.3.42c-.37.12-.69.28-.96.45-.76.48-1.41,1.07-1.92,1.76-.57.75-.85,1.45-.85,2.1,0,.23.09.48.27.75.18.27.38.44.6.5l2.67.84s0,.03,0,.04c-.23.24-.56.45-.98.62-.49.19-1.03.29-1.59.29-.88,0-1.61-.3-2.24-.93s-.93-1.36-.93-2.24c0-.96.32-1.73.98-2.36.64-.62,1.38-.92,2.29-.92h.19l.37-.81h-.96c-1.05,0-2,.37-2.82,1.09-.93.82-1.4,1.88-1.4,3.17Z"/>
    <path class="cls-3" d="m105.16,70.97c-.05.05-.1.11-.13.17-.04-.06-.08-.11-.13-.17-.36-.36-.99-.36-1.36,0-.18.18-.28.42-.28.68s.1.5.29.68c.38.36.99.35,1.35,0,.05-.05.1-.11.13-.16.04.06.09.12.14.17.19.18.41.27.67.27s.5-.1.68-.28.28-.41.28-.67-.1-.5-.28-.68c-.36-.36-.99-.36-1.36,0Z"/>
    <path class="cls-3" d="m113.71,67.44c.36,0,.7-.07,1.03-.21.11-.05.22-.1.33-.17v1.84c0,.56-.09,1.15-.26,1.75-.12.42-.29.84-.5,1.25-.12.24-.2.39-.23.44l.23.19v.3h.23l.09-.09c.45-.45.74-.77.88-.98.34-.49.59-1.13.77-1.89.21-.94.31-2.16.31-3.64v-2.04c0-.9-.27-1.68-.79-2.3-.54-.64-1.24-.96-2.08-.96s-1.54.32-2.08.96c-.53.62-.79,1.39-.79,2.3s.25,1.69.74,2.29c.53.64,1.25.97,2.14.97Zm-.96-4.52c.25-.32.56-.48.96-.48s.73.16.98.49c.25.33.38.74.38,1.25s-.13.92-.38,1.25c-.26.33-.57.49-.97.49s-.73-.16-.98-.49c-.25-.33-.38-.74-.38-1.25s.13-.92.4-1.27Z"/>
    <path class="cls-3" d="m134.27,60.61c.26,0,.5-.1.68-.28s.28-.41.28-.67-.1-.5-.28-.68c-.36-.36-.99-.36-1.36,0-.18.18-.28.42-.28.68s.1.5.29.68c.19.18.41.27.67.27Z"/>
    <path class="cls-3" d="m162.15,65.14c0,.28-.06.48-.18.6-.12.12-.29.18-.53.18h-.19v-.02h-6.71v.02h-.14c-.53,0-1-.09-1.39-.27-.53-.24-.64-.54-.65-.77.22-.02.46-.03.69-.03h.78l1.51-1.51h-2.51c-.1,0-.29-.03-.66-.19-.26-.12-.49-.24-.67-.35l-2.29-1.5c-.69-.45-1.36-.68-1.98-.68h-.15c-.56,0-1.02.21-1.35.62-.29.36-.44.84-.44,1.41,0,.22.05.44.15.68.03.07.08.16.14.27l.13.22.56-.22v-.66c0-.21.09-.39.27-.55.19-.17.37-.25.55-.25h.15c.14,0,.31.04.52.12.21.08.39.17.55.3l2.03,1.31c-.38.17-.8.4-1.26.69-.83.52-1.36.84-1.59.95-.59.28-1.2.42-1.81.42h-.84c-.26,0-.48-.08-.69-.26-.19-.17-.28-.36-.28-.6v-4.56l-1.51,1.51v3.05c0,.44-.05.63-.08.7-.03.08-.08.15-.27.15-.16,0-.29-.07-.4-.22-.13-.17-.19-.38-.19-.64v-4.56l-1.51,1.51v3.05c0,.4-.06.59-.11.68-.05.08-.13.17-.37.17-.19,0-.36-.08-.51-.24-.16-.17-.24-.37-.24-.62v-4.56l-1.51,1.51v3.05c0,.31-.05.55-.14.7-.05.07-.13.16-.36.16h-.82c-.22,0-.41-.09-.58-.28-.18-.2-.26-.44-.26-.71v-4.42l-1.51,1.51v3.12c0,.41-.08.58-.13.65-.07.09-.21.13-.42.13h-.22v-.02h-6.13s0,0,0,0h-6.71v.02h-.77v-12.49l-1.51,1.51v12.49h2.28s.31,0,.31,0h.28s5.55,0,5.55,0h0s6.12,0,6.12,0h0s.81,0,.81,0c.41,0,.76-.08,1.05-.24.14-.08.27-.17.37-.28.12.12.26.23.41.3.28.15.64.22,1.08.22h.92c.34,0,.63-.07.87-.21.14-.08.27-.18.39-.31.15.13.32.23.52.32.63.27,1.43.26,1.87.02.13-.07.26-.16.37-.28.14.11.3.2.48.28.61.25,1.32.22,1.75,0,.14-.07.26-.16.36-.27.41.29.91.44,1.48.45h0s.03,0,.03,0h.84c.85,0,1.63-.16,2.32-.49.25-.12.77-.45,1.58-1,.46-.31.89-.55,1.3-.71.04.73.44,1.31,1.18,1.7.63.33,1.42.5,2.35.5h.14s.31,0,.31,0h.28s5.54,0,5.54,0h0s.78,0,.78,0c.68,0,1.22-.19,1.61-.56.41-.39.61-.98.61-1.73v-11.71l-1.51,1.51v10.2Z"/>
    <path class="cls-3" d="m165.48,54.94v13.47c0,.87-.07,1.66-.22,2.35-.1.47-.23.89-.4,1.25-.08.16-.13.27-.16.31l.21.2v.3h.2l.08-.06c.28-.21.54-.48.76-.82.31-.47.55-1.06.72-1.75.21-.85.32-1.87.32-3.05v-13.71l-1.51,1.51Z"/>
    <path class="cls-3" d="m86.37,39.08c-3.44-3.91,1.25-5.58,3.94-8.05-5.21-1.53-8.58-.26-10.32,4.04-1.73,4.27-.06,7.59,4.2,9.03,3.17,1.07,3.43,2.38,2.03,5.18-1.47,2.94-1.3,5.96,2.15,8.51-1.34-8.68,8.65-12.32,9.2-21.22-4.21,2.41-7.34,6.91-11.21,2.51Z"/>
    <path class="cls-3" d="m136.67,114.86c-5.51-3.16-11.48-5.04-17.67-6.31-9.46-1.95-8.61-2.73-10.46,7.76-.44,2.52.56,3.97,3.1,4.5,4.1.85,8.19,1.74,12.26,2.72,4.49,1.08,8.74,2.77,12.44,5.6,1.01.77,2.77,1.33,2.62,2.64-.18,1.56-2.14,1.67-3.4,2.23-3.02,1.34-6.25,2.16-9.5,2.3-14.72.62-29.34-4.68-26.27-23.97.12-.77.39-1.65-.38-2.16-.8-.52-1.48.16-2.11.59-3.24,2.2-6.37,4.6-9.73,6.61-18.36,10.98-43.97,13.01-58.53-4.7-.1-.12-.99-1.6-1.65-2,.03,3.83,1.55,7.25,2.79,10.74-2.72-3.39-3.97-7.23-3.89-11.54.05-2.4.81-3,3.11-1.79,18.52,9.76,36.99,8.07,55.52-.17,3.67-1.63,5-4.44,5.51-7.9.72-4.9-.38-5.7-4.77-3.83-12.43,5.3-25.36,7.94-38.68,4.89-20.28-4.65-34.64-10.6-40.94-31.55-.15-.49-1.06-3.27-2.48-5.6-.1,5.66,1.8,11,3.56,16.81-1.19-1.54-1.5-2.36-1.89-3.42-3.81-10.53-3.65-21.28-1.56-32.07C7.41,25.88,17.31,11.32,36.84,5.16c13.35-4.21,26.88-3.59,40.13.93,7.38,2.52,14.19,6.15,19.35,12.23,1.73,2.04,3.18,4.33,4.88,6.67-.05-.07,0-.46,0-.56,0-.2,0-.39-.02-.59-.03-.42-.09-.83-.19-1.24-.38-1.54-1.36-2.86-2.27-4.13s-1.91-2.46-2.98-3.59c-1.72-1.8-3.65-3.39-5.72-4.77C77.51,1.83,63.6-.97,48.85.28c-11.78,1-22.27,5.18-31.22,13.21-22.53,20.22-25.4,68.06,2.76,89.04,1.54,1.15,2.42,2.43,2.18,4.63-1.08,10.03,2.98,17.74,10.98,23.65,4.86,3.6,10.25,5.61,15.95,6.6.66.11,1.32.2,1.98.28.83.1,1.66.18,2.49.25.97.07,1.95.12,2.93.14,1.1.02,2.2.02,3.3-.03,1.2-.05,2.4-.11,3.59-.25.22-.03.45-.09.67-.14.31-.06.62-.11.94-.15.16-.02.33-.04.49-.06.15-.02.32-.06.48-.06.59-.09,1.19-.18,1.78-.29,1.17-.22,2.33-.47,3.48-.78.4-.1.8-.21,1.19-.33.2-.06.4-.12.59-.17.1-.03.2-.06.3-.09.08-.03.2-.09.29-.09.03,0,.05-.02.08-.02,6.37-2.02,12.26-5.25,17.85-9.16,1.37-.96,2.75-1.91,3-3.83.17,1.97.17,3.79.17,5.62,0,9.16,3.94,15.1,12.48,18.43,2.67,1.04,5.46,2.05,8.28,2.36,16.31,1.77,28.99-3.48,28.21-22.07-.23-5.47-2.7-9.43-7.38-12.11Z"/>
  </g>
  <path class="cls-3" d="m94.32,116.75c-6.11-7.57-4.83-14.41-4.1-16.78.18-.57.32-.88.32-.88l-8.5,3.94c-2.45,10.36,3.1,17.22,5.96,19.96l7.74-4.24c-.37-.61-.83-1.27-1.42-2Z"/>
  <g>
    <path class="cls-1" d="m168.81,123.28c-2.03-13.55-10.84-21.3-22.55-26.47-.29-.13-.56-.27-.81-.4-3.21-1.42-6.36-2.6-8.36-3.31-5.96-2.08-12.04-3.86-18.02-5.91v-38.42l1.5-1.5c.2-.2.2-.52,0-.72l-1.92-1.92c-.2-.2-.52-.2-.72,0l-1.92,1.92c-.2.2-.2.52,0,.72l1.5,1.5v37.87c-5.37-1.89-10.64-4.04-15.65-6.86-6.22-3.5-11.23-8.18-12.2-15.85-.07-.58-.34-1.29-1.41-1.24-.75,6.4-.39,12.67,2.35,18.7-4.82-5.99-3.68-13.18-4.29-20.03-1.82,7.47-2.8,14.84,1.93,21.68,3.53,5.11,8.26,8.76,13.99,10.99,5.6,2.18,11.32,4.08,17.01,6.01,10.27,3.48,20.94,5.79,30.71,10.71,6.26,3.16,11.41,7.38,13.96,14.18.29.78.41,1.9,1.88,1.68,1.15-3.06-.54-5.93-1.09-9.6,1.64,2.46,1.84,4.52,1.98,6.6.79,12.14-5.37,20.89-13.88,28.5-2.07,1.85-4.44,3.41-5.68,6.07,5.74-2.75,10.23-7.01,14.22-11.8,5.55-6.67,8.83-14.1,7.48-23.1Z"/>
    <path class="cls-1" d="m127.81,175.05c-2.83-1.74-2.48-3.09.01-4.84,2.1-1.48,4.45-3,4.36-6.09-.13-4.22-5.81-9.58-11.38-9.55-2.56.1-4.45,3.25-7,5.39-1.93,1.62-1.75,3,.46,4.19.69.37,1.32.85,1.93,1.34,5.92,4.68,5.95,6.07.23,10.73-.3.25-.58.53-.9.76-2.77,1.93-2.67,3.67-.03,5.81,2.1,1.71,4.53,3.3,5.61,5.93,1.68,4.11,1.58,4.16,5.31,1.35,1.05-.79,2.1-1.56,3.12-2.38,4.15-3.33,4.43-5.23,1.27-9.57-.84-1.15-1.82-2.33-3-3.06Z"/>
    <path class="cls-1" d="m50.9,44.1c-3.48.25-4.81,3.98-7.17,6.43-1.79,1.86-1.45,3.43,1.04,4.47,2.65,1.1,5.35,2.23,7.08,4.66,2.76,3.87,2.71,3.93,5.93.29,1.2-1.36,2.37-2.76,3.49-4.19,1.04-1.32,1.27-2.8.7-4.41-1.23-3.47-6.69-7.29-11.08-7.24Z"/>
  </g>
</svg>