<?xml version="1.0" encoding="UTF-8"?>
<svg id="Layer_1" data-name="Layer 1" xmlns="http://www.w3.org/2000/svg" viewBox="0 0 191.96 191.96">
  <defs>
    <style>
      .cls-1 {
        fill: #c1c1c1;
      }

      .cls-1, .cls-2, .cls-3, .cls-4 {
        stroke-width: 0px;
      }

      .cls-3 {
        fill: #42c0c0;
      }

      .cls-4 {
        fill: #212121;
      }
    </style>
  </defs>
  <rect class="cls-4" x="0" y="0" width="191.96" height="191.96" rx="95.98" ry="95.98"/>
  <g>
    <g>
      <path class="cls-3" d="m41.33,138.53c.17.2.26.6.26,1.04s-.09.97-.3,1.38c-.17.32-.43.58-.73.82h.89v3.52c.04,1.17.26,1.97.93,1.92l.95-.73.3.45-2.18,1.84c-.67-.32-1.13-.82-1.41-1.53l-1.67,1.53c-.89-.41-1.82-1.47-1.82-3.2v-.84c0-3.63,4.45-4.17,4.58-6.14l.2-.06Zm-1.6,3.85c-.74.54-1.47,1.17-1.47,2.29v.89c.06.95.33,1.51.91,1.53l.67-.52c-.07-.39-.11-.82-.11-1.28v-2.9Z"/>
      <path class="cls-3" d="m45.93,147.52l-1.45,1.25c-1.21-.56-1.67-1.75-1.67-3.48v-4.02l1.67-1.15v4.97c0,1.26.22,2.18.91,2.12l.54-.41v-5.52l1.67-1.15v9.41c-.26,3.03-1.82,3.91-2.62,4.07-1.1.19-1.84-.26-2.18-.84l.19-.06c.3.24.6.32.89.32.37,0,.71-.13.87-.2.67-.33,1.06-1.67,1.17-3.29v-2.01Z"/>
      <path class="cls-3" d="m51.32,140.1c.69.22,1.21.67,1.54,1.32l1.47-1.32c1.45.46,2.06,1.84,2.06,4.07v6.6l-1.67-1.36v-5.11c0-1.23-.24-2.25-1.17-2.62l-.43.37c.17.6.26,1.3.26,2.12v4.46l-1.67-1.38v-2.96c0-1.23-.24-2.25-1.17-2.62l-.17.15v6.94h-1.69v-6.31l2.64-2.36Z"/>
      <path class="cls-3" d="m61.83,138.53c.17.2.26.6.26,1.04s-.09.97-.3,1.38c-.17.32-.43.58-.73.82h.89v3.52c.04,1.17.26,1.97.93,1.92l.95-.73.3.45-2.18,1.84c-.67-.32-1.13-.82-1.41-1.53l-1.67,1.53c-.89-.41-1.82-1.47-1.82-3.2v-.84c0-3.63,4.45-4.17,4.58-6.14l.2-.06Zm-1.6,3.85c-.74.54-1.47,1.17-1.47,2.29v.89c.06.95.33,1.51.91,1.53l.67-.52c-.07-.39-.11-.82-.11-1.28v-2.9Z"/>
      <path class="cls-3" d="m73.8,145.06c.3.58.43,1.17.43,1.75,0,1.82-1.38,3.42-3.5,3.5-1.79.06-4.35-1.6-4.35-4.97v-1.75c0-1-.41-1.73-1.13-2.03l-.26.24v6.96h-1.69v-7.74h1.69l.95-.93c1.15.32,2.1,1.13,2.16,3.89v2.72c0,1.9,2.06,2.12,2.81,2.06,1.66-.06,2.75-1.17,2.75-2.66,0-.32-.06-.63-.15-.97l.3-.07Z"/>
    </g>
    <path class="cls-1" d="m75.6,161.28l-1.14-1.14v-33.9h-1.2v33.9l-1.14,1.14c-.15.15-.15.4,0,.55l1.47,1.47c.15.15.4.15.55,0l1.47-1.47c.15-.15.15-.4,0-.55Z"/>
    <path class="cls-2" d="m87.98,126.22s-.04.01-.06.02c.02,0,.04-.01.06-.02Z"/>
    <g>
      <path class="cls-3" d="m107.62,72.83c0,.99.3,1.81.89,2.44.63.67,1.49,1,2.55,1,.73,0,1.38-.14,1.93-.42.48-.25.87-.6,1.18-1.04.08-.11.11-.26.11-.48,0-.18-.03-.35-.1-.52-.08-.2-.21-.33-.38-.38l-1.88-.59c-.18-.06-.26-.1-.29-.13-.06-.04-.07-.08-.07-.12,0-.15.09-.42.51-.9.31-.35.64-.64.98-.86.19-.12.43-.21.71-.27.16-.03.38-.08.66-.13l.1-.02,1.15-2.13-1.15.72c-.14.08-.27.15-.37.2l-1,.32c-.28.1-.53.21-.73.34-.58.37-1.07.82-1.47,1.34-.43.57-.65,1.11-.65,1.6,0,.18.07.37.2.57.14.21.29.33.46.39l2.04.64s0,.02,0,.03c-.18.19-.43.35-.75.47-.37.15-.78.22-1.21.22-.67,0-1.23-.23-1.71-.71s-.71-1.03-.71-1.71c0-.73.24-1.32.75-1.8.48-.47,1.06-.7,1.74-.7h.14l.29-.61h-.73c-.8,0-1.52.28-2.15.83-.71.62-1.07,1.44-1.07,2.42Z"/>
      <path class="cls-3" d="m111.69,76.91s-.07.08-.1.13c-.03-.04-.06-.09-.1-.13-.28-.28-.76-.28-1.03,0-.14.14-.21.32-.21.52s.08.38.22.52c.29.28.75.27,1.03,0,.04-.04.07-.08.1-.13.03.05.07.09.11.13.14.14.31.21.51.21s.38-.07.52-.21.21-.32.21-.51-.07-.38-.21-.52c-.28-.28-.76-.28-1.03,0Z"/>
      <path class="cls-3" d="m118.21,74.22c.27,0,.54-.05.79-.16.09-.04.17-.08.25-.13v1.4c0,.43-.07.88-.2,1.34-.09.32-.22.64-.38.95-.09.19-.15.3-.18.33l.17.14v.23h.18l.07-.07c.34-.34.56-.59.67-.75.26-.38.45-.86.59-1.44.16-.71.24-1.65.24-2.78v-1.55c0-.69-.2-1.28-.6-1.75-.41-.49-.94-.73-1.59-.73s-1.18.25-1.59.73c-.4.47-.6,1.06-.6,1.75s.19,1.29.56,1.74c.4.49.95.74,1.63.74Zm-.73-3.45c.19-.24.43-.36.73-.36s.55.12.75.38c.19.25.29.56.29.95s-.1.7-.29.95c-.2.25-.44.38-.74.38s-.55-.12-.75-.38c-.19-.25-.29-.56-.29-.95s.1-.7.3-.97Z"/>
      <path class="cls-3" d="m133.9,69.01c.2,0,.38-.07.52-.21s.21-.32.21-.51-.07-.38-.21-.52c-.28-.28-.76-.28-1.03,0-.14.14-.21.32-.21.52s.08.38.22.52c.14.14.31.21.51.21Z"/>
      <path class="cls-3" d="m155.15,72.47c0,.21-.05.37-.14.46-.09.09-.22.14-.4.14h-.14s-5.12,0-5.12,0h0s-.1,0-.1,0c-.41,0-.77-.07-1.06-.2-.4-.18-.49-.41-.5-.58.17-.02.35-.02.53-.02h.59l1.15-1.15h-1.92c-.08,0-.22-.03-.5-.14-.2-.09-.37-.18-.51-.27l-1.75-1.14c-.53-.34-1.04-.52-1.51-.52h-.12c-.43,0-.77.16-1.03.47-.22.28-.34.64-.34,1.07,0,.17.04.34.11.52.02.05.06.12.11.21l.1.17.43-.17v-.5c0-.16.07-.3.2-.42.14-.13.28-.19.42-.19h.12c.11,0,.24.03.4.09.16.06.3.13.42.23l1.55,1c-.29.13-.61.31-.96.53-.63.4-1.04.64-1.21.73-.45.21-.91.32-1.38.32h-.64c-.2,0-.37-.06-.53-.2-.15-.13-.22-.27-.22-.46v-3.48l-1.15,1.15v2.32c0,.34-.04.48-.06.54-.02.06-.06.12-.21.12-.12,0-.22-.05-.31-.17-.1-.13-.15-.29-.15-.49v-3.48l-1.15,1.15v2.32c0,.3-.05.45-.09.52-.04.06-.1.13-.29.13-.14,0-.27-.06-.39-.19-.12-.13-.18-.28-.18-.47v-3.48l-1.15,1.15v2.32c0,.24-.04.42-.11.53-.04.06-.1.12-.27.12h-.63c-.17,0-.31-.07-.44-.22-.14-.15-.2-.33-.2-.54v-3.37l-1.15,1.15v2.38c0,.32-.06.44-.1.49-.05.07-.16.1-.32.1h-.17s-4.68,0-4.68,0h0s-5.12,0-5.12,0h0s-.59,0-.59,0v-9.53l-1.15,1.15v9.53h1.74s.23,0,.23,0h.21s4.23,0,4.23,0h0s4.67,0,4.67,0h0s.62,0,.62,0c.31,0,.58-.06.8-.18.11-.06.2-.13.28-.22.09.09.2.17.31.23.21.11.48.17.83.17h.7c.26,0,.48-.05.66-.16.11-.06.21-.14.3-.24.11.1.25.18.39.24.48.21,1.09.2,1.43.02.1-.05.2-.12.28-.21.11.08.23.16.36.21.46.19,1.01.17,1.33,0,.1-.05.2-.12.28-.21.32.22.69.34,1.13.34h0s.02,0,.02,0h.64c.65,0,1.24-.13,1.77-.37.19-.09.59-.34,1.21-.76.35-.24.68-.42.99-.54.03.56.33,1,.9,1.3.48.25,1.08.38,1.8.38h.1s.23,0,.23,0h.21s4.23,0,4.23,0h0s.59,0,.59,0c.52,0,.93-.14,1.22-.43.31-.3.47-.75.47-1.32v-8.93l-1.15,1.15v7.78Z"/>
      <path class="cls-3" d="m157.69,64.69v10.27c0,.67-.06,1.27-.17,1.79-.07.36-.18.68-.31.95-.06.13-.1.21-.12.24l.16.16v.23h.16l.06-.04c.22-.16.41-.37.58-.63.24-.36.42-.81.55-1.34.16-.65.24-1.43.24-2.32v-10.46l-1.15,1.15Z"/>
      <path class="cls-3" d="m97.36,52.59c-2.62-2.98.95-4.25,3.01-6.14-3.98-1.17-6.54-.2-7.87,3.08-1.32,3.26-.05,5.79,3.21,6.89,2.42.82,2.62,1.81,1.55,3.95-1.12,2.24-.99,4.55,1.64,6.49-1.02-6.62,6.6-9.4,7.02-16.18-3.21,1.84-5.6,5.27-8.55,1.91Z"/>
      <path class="cls-3" d="m135.72,110.39c-4.2-2.41-8.76-3.84-13.47-4.82-7.21-1.49-6.57-2.08-7.98,5.92-.34,1.92.43,3.03,2.36,3.43,3.13.65,6.25,1.32,9.35,2.07,3.42.83,6.66,2.11,9.49,4.27.77.59,2.11,1.02,2,2.02-.14,1.19-1.63,1.27-2.6,1.7-2.3,1.02-4.77,1.65-7.24,1.75-11.23.48-22.38-3.57-20.04-18.28.09-.58.3-1.26-.29-1.65-.61-.4-1.13.12-1.61.45-2.47,1.68-4.86,3.51-7.42,5.04-14,8.37-33.53,9.92-44.64-3.58-.08-.09-.76-1.22-1.26-1.52.02,2.92,1.19,5.53,2.13,8.19-2.08-2.58-3.03-5.52-2.97-8.8.03-1.83.62-2.29,2.37-1.37,14.12,7.45,28.21,6.16,42.34-.13,2.8-1.24,3.81-3.38,4.2-6.02.55-3.74-.29-4.35-3.63-2.92-9.48,4.04-19.34,6.06-29.5,3.73-15.47-3.54-26.42-8.09-31.22-24.07-.11-.37-.81-2.5-1.89-4.27-.07,4.32,1.37,8.39,2.72,12.82-.91-1.18-1.15-1.8-1.44-2.6-2.9-8.03-2.79-16.23-1.19-24.46,2.86-14.77,10.4-25.88,25.3-30.58,10.18-3.21,20.5-2.74,30.6.71,5.63,1.92,10.82,4.69,14.76,9.32,1.32,1.56,2.43,3.3,3.72,5.09-.04-.06,0-.35,0-.43,0-.15,0-.3-.01-.45-.02-.32-.07-.64-.15-.95-.29-1.17-1.04-2.18-1.73-3.15s-1.45-1.88-2.28-2.74c-1.31-1.37-2.78-2.59-4.36-3.63-9.55-6.32-20.16-8.45-31.41-7.5-8.98.76-16.98,3.95-23.81,10.07-17.18,15.42-19.37,51.91,2.1,67.91,1.17.87,1.85,1.85,1.66,3.53-.82,7.65,2.28,13.53,8.37,18.04,3.71,2.74,7.82,4.28,12.16,5.03.5.09,1.01.16,1.51.22.63.08,1.27.14,1.9.19.74.06,1.49.09,2.23.11.84.02,1.68.01,2.52-.02.91-.03,1.83-.09,2.74-.19.17-.02.34-.07.51-.1.24-.05.48-.08.72-.11.13-.02.25-.03.38-.05.12-.01.24-.05.36-.05.45-.07.9-.14,1.36-.22.89-.16,1.78-.36,2.65-.59.3-.08.61-.16.91-.25.15-.04.3-.09.45-.13.08-.02.15-.05.23-.07.06-.02.15-.07.22-.07.02,0,.04-.01.06-.02,4.86-1.54,9.35-4.01,13.61-6.99,1.05-.73,2.1-1.45,2.29-2.92.13,1.5.13,2.89.13,4.29,0,6.99,3.01,11.52,9.51,14.05,2.03.79,4.17,1.56,6.31,1.8,12.44,1.35,22.11-2.66,21.51-16.83-.17-4.17-2.06-7.19-5.63-9.24Z"/>
    </g>
    <path class="cls-3" d="m103.43,111.83c-4.66-5.77-3.68-10.99-3.13-12.8.13-.43.24-.67.24-.67l-6.48,3c-1.87,7.9,2.36,13.14,4.55,15.23l5.9-3.23c-.28-.46-.63-.97-1.08-1.53Z"/>
    <g>
      <path class="cls-1" d="m160.23,116.8c-1.55-10.33-8.26-16.24-17.19-20.19-.22-.1-.42-.2-.62-.31-2.45-1.09-4.85-1.98-6.38-2.52-4.55-1.59-9.18-2.95-13.74-4.51v-29.3l1.14-1.14c.15-.15.15-.4,0-.55l-1.47-1.47c-.15-.15-.4-.15-.55,0l-1.47,1.47c-.15.15-.15.4,0,.55l1.14,1.14v28.88c-4.09-1.44-8.11-3.08-11.93-5.23-4.75-2.67-8.56-6.24-9.3-12.09-.06-.44-.26-.98-1.08-.94-.57,4.88-.3,9.66,1.79,14.26-3.68-4.57-2.81-10.05-3.27-15.28-1.39,5.7-2.14,11.32,1.47,16.53,2.69,3.89,6.3,6.68,10.67,8.38,4.27,1.66,8.63,3.11,12.97,4.58,7.83,2.65,15.97,4.42,23.42,8.17,4.78,2.41,8.7,5.63,10.65,10.82.22.59.31,1.45,1.43,1.28.87-2.33-.41-4.52-.83-7.32,1.25,1.88,1.41,3.45,1.51,5.04.61,9.26-4.09,15.93-10.59,21.74-1.58,1.41-3.39,2.6-4.33,4.63,4.38-2.09,7.81-5.35,10.84-9,4.23-5.08,6.73-10.75,5.71-17.62Z"/>
      <path class="cls-1" d="m128.97,156.29c-2.16-1.33-1.89-2.35,0-3.69,1.6-1.13,3.4-2.29,3.32-4.65-.1-3.22-4.43-7.31-8.68-7.29-1.95.07-3.39,2.48-5.34,4.11-1.48,1.24-1.34,2.29.35,3.2.52.28,1.01.65,1.47,1.02,4.52,3.57,4.54,4.63.17,8.18-.23.19-.44.41-.69.58-2.11,1.47-2.04,2.8-.02,4.43,1.6,1.3,3.46,2.52,4.28,4.52,1.28,3.14,1.21,3.17,4.05,1.03.8-.6,1.6-1.19,2.38-1.81,3.16-2.54,3.38-3.99.97-7.3-.64-.87-1.38-1.77-2.29-2.33Z"/>
      <path class="cls-1" d="m70.31,56.42c-2.65.19-3.67,3.04-5.47,4.9-1.36,1.42-1.11,2.62.79,3.41,2.02.84,4.08,1.7,5.4,3.55,2.11,2.95,2.07,3,4.52.22.92-1.04,1.81-2.11,2.66-3.2.79-1,.97-2.13.54-3.36-.94-2.65-5.1-5.56-8.45-5.52Z"/>
    </g>
  </g>
</svg>